<?xml version="1.0" standalone="no"?><!DOCTYPE svg PUBLIC "-//W3C//DTD SVG 1.1//EN" "http://www.w3.org/Graphics/SVG/1.1/DTD/svg11.dtd"><svg t="1571313649019" class="icon" viewBox="0 0 1024 1024" version="1.1" xmlns="http://www.w3.org/2000/svg" p-id="10101" xmlns:xlink="http://www.w3.org/1999/xlink" width="200" height="200"><defs><style type="text/css"></style></defs><path d="M348.63377 65.197908 242.386958 65.197908c-98.773607 0-178.824805 80.052221-178.824805 178.824805l0 107.609857 50.853202 0L348.63377 116.086925 348.63377 65.197908z" p-id="10102"></path><path d="M778.860349 65.197908 672.543951 65.197908l0 50.889017 234.255255 235.545644 50.887994 0L957.6872 244.022713C957.6872 145.250128 877.599164 65.197908 778.860349 65.197908z" p-id="10103"></path><path d="M510.362198 172.527378c-217.314421 0-393.416208 176.136579-393.416208 393.415185 0 98.599645 36.376489 188.676174 96.328929 257.725806l-92.03309 112.813369 27.697829 22.597671 89.184205-109.286032c70.674643 67.791989 166.5482 109.529579 272.237311 109.529579 105.932658 0 202.015993-41.947368 272.760221-110.053512l89.13304 109.949134 27.803229-22.529109-92.101651-113.615641C867.610672 754.094804 903.777383 664.261822 903.777383 565.942563 903.777383 348.663958 727.608058 172.527378 510.362198 172.527378zM528.506441 601.673345 295.579437 601.673345l0-35.765575 197.161429 0L492.740866 279.788288l35.764552 0L528.505417 601.673345z" p-id="10104"></path></svg>