<?xml version="1.0" standalone="no"?><!DOCTYPE svg PUBLIC "-//W3C//DTD SVG 1.1//EN" "http://www.w3.org/Graphics/SVG/1.1/DTD/svg11.dtd"><svg t="1571313786966" class="icon" viewBox="0 0 1024 1024" version="1.1" xmlns="http://www.w3.org/2000/svg" p-id="10337" xmlns:xlink="http://www.w3.org/1999/xlink" width="200" height="200"><defs><style type="text/css"></style></defs><path d="M658.286 512q0-60.571-42.857-103.429T512 365.714t-103.429 42.857T365.714 512t42.857 103.429T512 658.286t103.429-42.857T658.286 512z m292.571-62.286v126.857q0 6.858-4.571 13.143t-11.429 7.429l-105.714 16q-10.857 30.857-22.286 52 20 28.571 61.143 78.857 5.714 6.857 5.714 14.286t-5.143 13.143Q853.143 792.57 812 833.143t-53.714 40.571q-6.857 0-14.857-5.143l-78.858-61.714q-25.142 13.143-52 21.714Q603.43 906.286 596 934.857q-4 16-20.571 16H448.57q-8 0-14-4.857T428 933.714l-16-105.143q-28-9.142-51.429-21.142L280 868.57q-5.714 5.143-14.286 5.143-8 0-14.285-6.285-72-65.143-94.286-96-4-5.715-4-13.143 0-6.857 4.571-13.143 8.572-12 29.143-38t30.857-40.286q-15.428-28.571-23.428-56.571L89.714 594.857q-7.428-1.143-12-7.143t-4.571-13.428V447.429q0-6.858 4.571-13.143t10.857-7.429l106.286-16q8-26.286 22.286-52.571-22.857-32.572-61.143-78.857-5.714-6.858-5.714-13.715 0-5.714 5.143-13.143 14.857-20.571 56.285-61.428t54-40.857q7.429 0 14.857 5.714l78.858 61.143q25.142-13.143 52-21.714Q420.57 117.714 428 89.143q4-16 20.571-16H575.43q8 0 14 4.857T596 90.286l16 105.143q28 9.142 51.429 21.142l81.142-61.142q5.143-5.143 13.715-5.143 7.428 0 14.285 5.714 73.715 68 94.286 97.143 4 4.571 4 12.571 0 6.857-4.571 13.143-8.572 12-29.143 38t-30.857 40.286q14.857 28.571 23.428 56l104.572 16q7.428 1.143 12 7.143t4.571 13.428z" p-id="10338"></path></svg>